<?xml version="1.0" standalone="no"?>
<!DOCTYPE svg PUBLIC "-//W3C//DTD SVG 1.1//EN" "http://www.w3.org/Graphics/SVG/1.1/DTD/svg11.dtd">
<svg xmlns="http://www.w3.org/2000/svg" viewBox="0 0 108 108" width="108" height="108">
  <defs>
    <style>
      .d {
        stroke: #1d1e1c;
        stroke-miterlimit: 10;
        stroke-width: .3px;
      }

      .d, .e {
        fill: none;
      }

      .e {
        stroke: #fff;
        stroke-linejoin: round;
        stroke-width: 1.5px;
      }

      .f {
        fill: #1c305c;
      }
    </style>
  </defs>
  <g id="a" data-name="Fonds">
    <path class="f" d="m102.94,44.29c5.13,27.05-3.07,53.44-30.12,58.56-27.05,5.13-62.68-12.96-67.81-40.01S8.3,9.64,35.35,4.51c27.05-5.13,62.46,12.73,67.58,39.78Z"/>
  </g>
  <g id="c" data-name="Pictos">
    <g>
      <g>
        <path class="d" d="m90.11,45.61c.41.1,2.73-.87,4.51-1.65.79-.35.76-1.47-.04-1.79l-34.87-13.62c-3.36-1.31-7.08-1.33-10.45-.05l-35.84,13.61c-.83.32-.83,1.49,0,1.81l17.09,6.52,18.28,6.98c3.34,1.27,7.03,1.28,10.36,0l23.92-9.11"/>
        <path class="d" d="m30.51,50.44l-.12,19.71s3.14,7.23,19.92,9.23c5.28.63,10.67.31,15.75-1.26,4.11-1.27,8.59-3.45,11.11-7.18v-20.31"/>
        <path class="d" d="m53.6,40.62l33.65,5.42.21,12.62s-4.67,16.08-4.27,15.95c.39-.13,10.44,0,10.44,0l-4.94-14.54"/>
      </g>
      <g>
        <path class="e" d="m90.11,45.61c.41.1,2.73-.87,4.51-1.65.79-.35.76-1.47-.04-1.79l-34.87-13.62c-3.36-1.31-7.08-1.33-10.45-.05l-35.84,13.61c-.83.32-.83,1.49,0,1.81l17.09,6.52,18.28,6.98c3.34,1.27,7.03,1.28,10.36,0l23.92-9.11"/>
        <path class="e" d="m30.51,50.44l-.12,19.71s3.14,7.23,19.92,9.23c5.28.63,10.67.31,15.75-1.26,4.11-1.27,8.59-3.45,11.11-7.18v-20.31"/>
        <path class="e" d="m53.6,40.62l33.65,5.42.21,12.62s-4.67,16.08-4.27,15.95c.39-.13,10.44,0,10.44,0l-4.94-14.54"/>
      </g>
    </g>
  </g>
</svg>